<svg enable-background="new 0 0 40 40" viewBox="0 0 40 40" xmlns="http://www.w3.org/2000/svg"><circle cx="20.02" cy="19.99" fill="#1dd03f" r="19.98"/><path d="m19.99 31.44c-1.92-.03-3.79-.53-5.47-1.46l-6.17 1.66 1.66-5.98c-3.1-5.56-1.11-12.59 4.45-15.69s12.59-1.11 15.69 4.45c.94 1.68 1.44 3.57 1.46 5.49-.04 6.38-5.24 11.53-11.62 11.53z" fill="#fefefe"/><path d="m19.99 10.32c-5.3 0-9.59 4.29-9.6 9.59 0 1.95.59 3.85 1.7 5.46l-.91 3.54 3.62-.95c4.44 2.88 10.38 1.62 13.27-2.83 1.01-1.55 1.54-3.37 1.54-5.22.01-5.29-4.27-9.58-9.56-9.59-.02 0-.04 0-.06 0z" fill="#1dd03f"/><path d="m25.67 24.03c-.43.71-1.13 1.2-1.94 1.36-.6.11-1.23.07-1.81-.12-.42-.13-.95-.32-1.66-.6-2.01-.99-3.73-2.5-4.99-4.36-.65-.86-1.03-1.9-1.1-2.98 0-.88.37-1.72 1.01-2.33.2-.22.47-.35.76-.37h.55c.18 0 .42 0 .65.5s.83 1.99.9 2.13c.08.16.08.35 0 .52-.07.17-.17.34-.28.48l-.43.5c-.15.15-.3.3-.13.58.44.75 1.01 1.43 1.66 2.01.68.6 1.46 1.09 2.31 1.43.28.13.47.12.63-.08s.71-.83.91-1.13.38-.23.65-.13 1.66.78 1.96.93.48.22.55.33c.07.46 0 .92-.2 1.33z" fill="#fefefe"/></svg>